<svg width="117" height="117" viewBox="0 0 117 117" fill="none" xmlns="http://www.w3.org/2000/svg">
<g clip-path="url(#clip0_18_493)">
<path d="M58.5 117C90.8087 117 117 90.8087 117 58.5C117 26.1913 90.8087 0 58.5 0C26.1913 0 0 26.1913 0 58.5C0 90.8087 26.1913 117 58.5 117Z" fill="#231F20"/>
<path d="M93.6679 92.2158C92.43 93.3075 90.6907 94.2007 88.8887 94.6603C87.562 94.9946 86.1935 95.0991 84.9451 94.8431H84.9295C84.5377 94.7752 84.1564 94.6499 83.796 94.4932C80.6151 93.1717 77.9095 90.7899 75.1777 88.2566C74.1383 87.3008 73.125 86.2875 72.1274 85.2428C71.5319 84.6213 70.9417 83.9788 70.3724 83.3207C70.1164 83.0439 69.8814 82.7566 69.6359 82.4745C72.1169 80.5681 74.5144 78.1549 76.6559 75.0889C76.9484 75.4598 77.3192 75.956 77.7893 76.5201C78.2646 77.1155 78.8444 77.7998 79.4712 78.5101C81.6179 80.9128 84.4803 83.6811 87.1754 84.8563C87.3426 84.9242 87.4993 84.9608 87.6664 84.9608C88.1731 84.9817 88.6797 84.7049 88.8887 84.1982C89.1864 83.5296 88.8834 82.7566 88.2253 82.4641C85.8435 81.4247 83.164 78.7713 81.1792 76.5044C80.5211 75.7523 79.9465 75.0576 79.4764 74.4726C78.6877 73.4802 78.2072 72.8273 78.202 72.7959C78.1915 72.7855 78.1758 72.775 78.1654 72.7594C79.6383 70.2783 80.9494 67.4421 82.0306 64.1829L82.0933 63.9374C82.1037 63.8747 82.2447 62.8457 82.7462 62.1301C83.0752 62.8875 83.8169 63.7702 84.966 64.9663C85.1227 65.1283 85.2846 65.2902 85.4466 65.4678C85.6241 65.6245 85.7495 65.7603 85.8122 65.8282C86.1935 66.2669 86.58 66.7109 86.977 67.1549C88.3663 68.7271 89.8132 70.3201 91.3488 71.8453C91.7562 72.2475 92.1845 72.6758 92.6024 73.0728C93.9813 74.3942 95.2871 75.6374 96.2743 77.1364C96.572 77.6065 96.8436 78.0714 97.063 78.5624C97.6375 79.7689 97.9771 81.0329 98.0763 82.3126C98.3375 85.8331 96.8175 89.4528 93.6679 92.2106V92.2158Z" fill="white" stroke="#231F20" stroke-miterlimit="10"/>
<path d="M86.6636 64.4231C78.1184 85.2585 54.311 95.2192 33.4808 86.674C28.5449 84.6474 24.0581 81.6806 20.2765 77.9304C18.5894 76.4365 18.4379 73.8563 19.9266 72.1744C21.4152 70.4925 23.9954 70.3306 25.6773 71.8244C25.7922 71.9289 25.8967 72.0334 26.0012 72.1483C38.798 84.8198 59.4402 84.7258 72.1169 71.9289C75.1255 68.8942 77.5073 65.2902 79.1265 61.3362C79.8577 59.2104 82.1821 58.0822 84.3079 58.8239C86.439 59.5603 87.562 61.8847 86.8307 64.0105C86.7785 64.1515 86.721 64.2873 86.6584 64.4231H86.6636Z" fill="white" stroke="#231F20" stroke-miterlimit="10"/>
</g>
<defs>
<clipPath id="clip0_18_493">
<rect width="117" height="117" fill="white"/>
</clipPath>
</defs>
</svg>
