<svg width="209" height="35" viewBox="0 0 209 35" fill="none" xmlns="http://www.w3.org/2000/svg">
<path d="M3.56351 23.904C3.85151 24.192 4.16351 24.408 4.49951 24.552C4.83551 24.696 5.19551 24.768 5.57951 24.768C6.97151 24.768 8.18351 23.772 9.21552 21.78C10.2475 19.764 10.7635 17.28 10.7635 14.328C10.7635 12.816 10.5115 11.628 10.0075 10.764C9.50351 9.9 8.81951 9.468 7.95551 9.468C6.94751 9.468 6.05951 9.936 5.29151 10.872C4.52351 11.808 3.91151 13.188 3.45551 15.012C3.43151 15.3 3.41951 15.624 3.41951 15.984C3.41951 16.344 3.41951 16.884 3.41951 17.604C3.41951 18.492 3.43151 19.416 3.45551 20.376C3.47951 21.336 3.51551 22.512 3.56351 23.904ZM3.70751 26.388C3.80351 27.78 3.92351 29.136 4.06751 30.456C4.23551 31.776 4.43951 33.144 4.67951 34.56C4.34351 34.68 3.94751 34.764 3.49151 34.812C3.05951 34.884 2.65151 34.92 2.26751 34.92C1.85951 31.848 1.52351 28.44 1.25951 24.696C0.995514 20.952 0.863514 17.544 0.863514 14.472C0.863514 13.056 0.887514 11.784 0.935514 10.656C0.983514 9.528 1.06751 8.412 1.18751 7.308C1.49951 7.14 1.83551 7.02 2.19551 6.948C2.57951 6.852 2.97551 6.804 3.38351 6.804C3.50351 6.804 3.64751 6.816 3.81551 6.84C3.98351 6.864 4.18751 6.9 4.42751 6.948C4.25951 7.644 4.11551 8.316 3.99551 8.964C3.89951 9.612 3.81551 10.248 3.74351 10.872C4.39151 9.624 5.15951 8.664 6.04751 7.992C6.95951 7.32 7.95551 6.984 9.03551 6.984C10.4275 6.984 11.5435 7.632 12.3835 8.928C13.2235 10.224 13.6435 11.952 13.6435 14.112C13.6435 17.688 12.8635 20.676 11.3035 23.076C9.74352 25.452 7.83551 26.64 5.57951 26.64C5.26751 26.64 4.95551 26.628 4.64351 26.604C4.33151 26.556 4.01951 26.484 3.70751 26.388ZM28.9832 27.36C27.2312 27.36 25.8992 26.508 24.9872 24.804C24.0992 23.1 23.6552 20.592 23.6552 17.28C23.6552 15.6 23.7872 13.92 24.0512 12.24C24.3392 10.536 24.6872 9.312 25.0952 8.568C25.3112 8.496 25.5272 8.448 25.7432 8.424C25.9592 8.376 26.1752 8.352 26.3912 8.352C26.6072 8.352 26.7992 8.376 26.9672 8.424C27.1592 8.448 27.3392 8.508 27.5072 8.604C27.1472 9.756 26.8712 11.076 26.6792 12.564C26.4872 14.052 26.3912 15.66 26.3912 17.388C26.3912 19.716 26.6552 21.624 27.1832 23.112C27.7352 24.6 28.4672 25.344 29.3792 25.344C30.5072 25.344 31.3592 24.48 31.9352 22.752C32.5352 21.024 32.8352 18.6 32.8352 15.48C32.8352 14.52 32.7872 13.524 32.6912 12.492C32.5952 11.436 32.4992 10.704 32.4032 10.296C32.7632 10.128 33.2072 9.996 33.7352 9.9C34.2632 9.804 34.7672 9.756 35.2472 9.756C35.3672 10.308 35.4512 10.968 35.4992 11.736C35.5712 12.504 35.6072 13.284 35.6072 14.076C35.6072 18.372 35.0432 21.66 33.9152 23.94C32.8112 26.22 31.1672 27.36 28.9832 27.36ZM49.2568 28.908C49.0168 28.98 48.6328 29.04 48.1048 29.088C47.6008 29.16 47.1688 29.196 46.8088 29.196C46.4248 23.844 46.1968 18.936 46.1248 14.472C46.0768 9.984 46.1848 5.4 46.4488 0.719999C46.6888 0.599999 46.9528 0.503999 47.2408 0.431999C47.5528 0.335999 47.8528 0.287998 48.1408 0.287998C48.3808 0.287998 48.6088 0.311999 48.8248 0.36C49.0648 0.383999 49.3168 0.431999 49.5808 0.503998C49.1968 4.224 48.9688 8.628 48.8968 13.716C48.8488 18.78 48.9688 23.844 49.2568 28.908ZM66.6861 16.632C68.4141 17.88 69.5421 18.948 70.0701 19.836C70.6221 20.7 70.8981 21.66 70.8981 22.716C70.8981 24.372 70.3701 25.74 69.3141 26.82C68.2581 27.9 66.9141 28.44 65.2821 28.44C63.5781 28.44 62.1861 27.828 61.1061 26.604C60.0501 25.38 59.5221 23.76 59.5221 21.744C59.8821 21.624 60.2541 21.54 60.6381 21.492C61.0461 21.42 61.4421 21.396 61.8261 21.42C61.7781 23.028 62.0541 24.288 62.6541 25.2C63.2781 26.112 64.1661 26.568 65.3181 26.568C66.1821 26.568 66.8661 26.28 67.3701 25.704C67.8981 25.104 68.1621 24.3 68.1621 23.292C68.1621 22.476 67.9341 21.72 67.4781 21.024C67.0221 20.304 66.0381 19.392 64.5261 18.288C62.7501 16.992 61.5861 15.888 61.0341 14.976C60.4821 14.04 60.2061 13.008 60.2061 11.88C60.2061 10.368 60.6621 9.168 61.5741 8.28C62.4861 7.368 63.7221 6.912 65.2821 6.912C66.7701 6.912 67.9341 7.344 68.7741 8.208C69.6381 9.072 70.2381 10.452 70.5741 12.348C70.2141 12.516 69.8421 12.648 69.4581 12.744C69.0981 12.816 68.7141 12.876 68.3061 12.924C68.1141 11.508 67.7661 10.476 67.2621 9.828C66.7821 9.18 66.1101 8.856 65.2461 8.856C64.5261 8.856 63.9501 9.096 63.5181 9.576C63.1101 10.056 62.9061 10.704 62.9061 11.52C62.9061 12.36 63.1461 13.14 63.6261 13.86C64.1061 14.58 65.1261 15.504 66.6861 16.632ZM93.579 14.724C93.579 16.308 93.363 18.408 92.931 21.024C92.499 23.64 91.983 26.04 91.383 28.224C91.023 28.224 90.639 28.188 90.231 28.116C89.823 28.044 89.427 27.948 89.043 27.828C89.067 27.732 89.091 27.612 89.115 27.468C89.139 27.348 89.187 27.18 89.259 26.964C89.331 26.58 89.391 26.304 89.439 26.136C89.487 25.944 89.523 25.776 89.547 25.632C89.043 25.992 88.467 26.268 87.819 26.46C87.195 26.652 86.523 26.748 85.803 26.748C84.171 26.748 82.851 26.316 81.843 25.452C80.835 24.564 80.331 23.4 80.331 21.96C80.331 20.4 80.991 19.212 82.311 18.396C83.631 17.58 85.575 17.172 88.143 17.172C88.527 17.172 88.899 17.184 89.259 17.208C89.619 17.208 90.099 17.22 90.699 17.244C90.723 17.004 90.735 16.74 90.735 16.452C90.735 16.164 90.735 15.708 90.735 15.084C90.735 13.164 90.495 11.772 90.015 10.908C89.559 10.044 88.791 9.612 87.711 9.612C86.607 9.612 85.683 10.104 84.939 11.088C84.195 12.048 83.799 13.272 83.751 14.76C83.079 14.664 82.539 14.508 82.131 14.292C81.723 14.052 81.411 13.74 81.195 13.356C81.483 11.772 82.275 10.428 83.571 9.324C84.891 8.22 86.391 7.668 88.071 7.668C89.895 7.668 91.263 8.268 92.175 9.468C93.111 10.644 93.579 12.396 93.579 14.724ZM83.175 22.032C83.175 22.92 83.463 23.628 84.039 24.156C84.615 24.66 85.371 24.912 86.307 24.912C86.979 24.912 87.615 24.816 88.215 24.624C88.839 24.408 89.415 24.096 89.943 23.688C90.135 22.704 90.279 21.828 90.375 21.06C90.495 20.292 90.579 19.524 90.627 18.756C88.155 18.612 86.295 18.816 85.047 19.368C83.799 19.896 83.175 20.784 83.175 22.032ZM107.372 20.988C107.372 22.116 107.396 23.4 107.444 24.84C107.492 26.256 107.552 27.288 107.624 27.936C107.312 28.032 106.94 28.116 106.508 28.188C106.076 28.26 105.656 28.296 105.248 28.296C105.08 25.776 104.936 22.512 104.816 18.504C104.696 14.496 104.636 11.1 104.636 8.316C104.876 8.196 105.164 8.1 105.5 8.028C105.836 7.956 106.184 7.92 106.544 7.92C106.784 7.92 107.012 7.932 107.228 7.956C107.468 7.98 107.708 8.016 107.948 8.064C107.9 8.496 107.84 9.192 107.768 10.152C107.72 11.088 107.684 11.7 107.66 11.988C108.452 10.668 109.292 9.684 110.18 9.036C111.068 8.388 112.004 8.064 112.988 8.064C114.476 8.064 115.556 8.616 116.228 9.72C116.924 10.8 117.272 12.504 117.272 14.832C117.272 16.704 117.116 18.804 116.804 21.132C116.516 23.46 116.204 25.284 115.868 26.604C115.484 26.58 115.052 26.532 114.572 26.46C114.116 26.364 113.696 26.256 113.312 26.136C113.744 23.784 114.056 21.696 114.248 19.872C114.44 18.048 114.536 16.332 114.536 14.724C114.536 13.212 114.344 12.12 113.96 11.448C113.6 10.776 113 10.44 112.16 10.44C111.32 10.44 110.48 10.86 109.64 11.7C108.824 12.54 108.116 13.692 107.516 15.156C107.468 16.884 107.432 18.144 107.408 18.936C107.384 19.728 107.372 20.412 107.372 20.988ZM135.719 19.548C136.103 19.596 136.475 19.68 136.835 19.8C137.219 19.896 137.543 20.028 137.807 20.196C137.759 22.212 137.351 23.796 136.583 24.948C135.839 26.076 134.819 26.64 133.523 26.64C132.011 26.64 130.871 25.788 130.103 24.084C129.335 22.356 128.951 19.812 128.951 16.452C128.951 15.348 128.987 14.244 129.059 13.14C129.131 12.036 129.239 10.908 129.383 9.756C128.927 9.732 128.471 9.684 128.015 9.612C127.583 9.54 127.139 9.456 126.683 9.36C126.707 9.024 126.755 8.7 126.827 8.388C126.899 8.076 126.995 7.788 127.115 7.524C127.571 7.62 128.003 7.704 128.411 7.776C128.819 7.848 129.227 7.896 129.635 7.92C129.731 7.296 129.851 6.624 129.995 5.904C130.163 5.16 130.379 4.248 130.643 3.168C131.147 3.192 131.639 3.252 132.119 3.348C132.623 3.42 133.103 3.528 133.559 3.672C133.319 4.464 133.103 5.232 132.911 5.976C132.719 6.72 132.563 7.44 132.443 8.136C133.403 8.16 134.339 8.16 135.251 8.136C136.163 8.088 137.051 8.028 137.915 7.956C137.915 8.196 137.879 8.472 137.807 8.784C137.759 9.072 137.687 9.384 137.591 9.72C136.703 9.816 135.791 9.888 134.855 9.936C133.943 9.96 133.031 9.96 132.119 9.936C131.951 11.064 131.819 12.216 131.723 13.392C131.627 14.568 131.579 15.72 131.579 16.848C131.579 19.392 131.759 21.336 132.119 22.68C132.503 24 133.043 24.66 133.739 24.66C134.387 24.66 134.867 24.252 135.179 23.436C135.515 22.596 135.695 21.3 135.719 19.548ZM147.566 18.288C147.566 15.168 148.274 12.624 149.69 10.656C151.13 8.688 152.978 7.704 155.234 7.704C157.082 7.704 158.546 8.412 159.626 9.828C160.706 11.22 161.246 13.104 161.246 15.48C161.246 18.96 160.562 21.816 159.194 24.048C157.85 26.256 156.062 27.36 153.83 27.36C151.91 27.36 150.386 26.532 149.258 24.876C148.13 23.196 147.566 21 147.566 18.288ZM158.366 16.992C158.366 14.544 158.054 12.72 157.43 11.52C156.806 10.32 155.858 9.72 154.586 9.72C153.434 9.72 152.426 10.512 151.562 12.096C150.722 13.68 150.302 15.624 150.302 17.928C150.302 20.04 150.662 21.816 151.382 23.256C152.102 24.672 153.074 25.38 154.298 25.38C155.378 25.38 156.326 24.564 157.142 22.932C157.958 21.276 158.366 19.296 158.366 16.992ZM174.394 20.988C174.394 22.116 174.418 23.4 174.466 24.84C174.514 26.256 174.574 27.288 174.646 27.936C174.334 28.032 173.962 28.116 173.53 28.188C173.098 28.26 172.678 28.296 172.27 28.296C172.102 25.776 171.958 22.512 171.838 18.504C171.718 14.496 171.658 11.1 171.658 8.316C171.898 8.196 172.186 8.1 172.522 8.028C172.858 7.956 173.206 7.92 173.566 7.92C173.806 7.92 174.034 7.932 174.25 7.956C174.49 7.98 174.73 8.016 174.97 8.064C174.922 8.496 174.862 9.192 174.79 10.152C174.742 11.088 174.706 11.7 174.682 11.988C175.474 10.668 176.314 9.684 177.202 9.036C178.09 8.388 179.026 8.064 180.01 8.064C181.498 8.064 182.578 8.616 183.25 9.72C183.946 10.8 184.294 12.504 184.294 14.832C184.294 16.704 184.138 18.804 183.826 21.132C183.538 23.46 183.226 25.284 182.89 26.604C182.506 26.58 182.074 26.532 181.594 26.46C181.138 26.364 180.718 26.256 180.334 26.136C180.766 23.784 181.078 21.696 181.27 19.872C181.462 18.048 181.558 16.332 181.558 14.724C181.558 13.212 181.366 12.12 180.982 11.448C180.622 10.776 180.022 10.44 179.182 10.44C178.342 10.44 177.502 10.86 176.662 11.7C175.846 12.54 175.138 13.692 174.538 15.156C174.49 16.884 174.454 18.144 174.43 18.936C174.406 19.728 174.394 20.412 174.394 20.988ZM197.936 15.732C198.632 15.972 199.376 16.164 200.168 16.308C200.984 16.428 201.836 16.488 202.724 16.488C202.964 16.488 203.24 16.476 203.552 16.452C203.888 16.428 204.128 16.392 204.272 16.344C204.464 15.648 204.596 15.012 204.668 14.436C204.764 13.836 204.812 13.296 204.812 12.816C204.812 11.76 204.632 11.004 204.272 10.548C203.936 10.092 203.384 9.864 202.616 9.864C201.608 9.864 200.684 10.404 199.844 11.484C199.004 12.564 198.368 13.98 197.936 15.732ZM205.964 20.88C206.348 20.952 206.732 21.096 207.116 21.312C207.524 21.528 207.872 21.78 208.16 22.068C207.704 23.436 206.768 24.672 205.352 25.776C203.96 26.856 202.508 27.396 200.996 27.396C199.052 27.396 197.516 26.64 196.388 25.128C195.284 23.616 194.732 21.588 194.732 19.044C194.732 16.188 195.524 13.62 197.108 11.34C198.716 9.06 200.624 7.92 202.832 7.92C204.248 7.92 205.364 8.376 206.18 9.288C207.02 10.176 207.44 11.388 207.44 12.924C207.44 13.74 207.356 14.568 207.188 15.408C207.044 16.224 206.84 17.004 206.576 17.748C206.096 17.916 205.508 18.048 204.812 18.144C204.14 18.216 203.3 18.252 202.292 18.252C201.524 18.252 200.732 18.192 199.916 18.072C199.124 17.928 198.356 17.724 197.612 17.46C197.564 17.748 197.528 18.036 197.504 18.324C197.504 18.588 197.504 18.852 197.504 19.116C197.504 21.012 197.828 22.548 198.476 23.724C199.148 24.876 200.036 25.452 201.14 25.452C202.1 25.452 203.06 25.008 204.02 24.12C204.98 23.208 205.628 22.128 205.964 20.88Z" fill="black"/>
</svg>
