<svg width="179" height="200" viewBox="0 0 179 200" fill="none" xmlns="http://www.w3.org/2000/svg">
<g clip-path="url(#clip0_20_3764)">
<path d="M99.7253 47.5275H98.6264V17.4234C98.6264 12.8024 96.7907 8.37074 93.5232 5.10321C90.2557 1.83569 85.8239 5.83076e-06 81.203 0H17.4234C15.1354 -5.7741e-06 12.8697 0.450658 10.7558 1.32626C8.64188 2.20186 6.72114 3.48526 5.10322 5.10317C3.48531 6.72108 2.20191 8.64181 1.32629 10.7557C0.45068 12.8696 5.05238e-06 15.1353 0 17.4234V182.577C-2.1653e-06 184.865 0.45066 187.13 1.32627 189.244C2.20187 191.358 3.48528 193.279 5.10319 194.897C6.7211 196.515 8.64184 197.798 10.7557 198.674C12.8696 199.549 15.1353 200 17.4234 200H81.2029C85.8239 200 90.2556 198.164 93.5231 194.897C96.7906 191.629 98.6263 187.198 98.6263 182.577V68.9561H99.7253V47.5275Z" fill="#E6E6E6"/>
<path d="M81.9059 4.53298H73.5806C73.9634 5.47163 74.1096 6.49003 74.0061 7.49847C73.9027 8.50691 73.5528 9.47443 72.9874 10.3158C72.4219 11.1572 71.6582 11.8466 70.7636 12.3233C69.8689 12.8 68.8708 13.0494 67.8571 13.0495H31.3186C30.3049 13.0494 29.3067 12.8 28.4121 12.3233C27.5174 11.8466 26.7537 11.1572 26.1883 10.3158C25.6228 9.47442 25.273 8.50689 25.1695 7.49845C25.0661 6.49001 25.2122 5.47161 25.5951 4.53296H17.8192C14.3683 4.53296 11.0588 5.90382 8.61864 8.34396C6.17849 10.7841 4.80762 14.0937 4.80762 17.5445V182.455C4.80762 185.906 6.17847 189.216 8.61862 191.656C11.0588 194.096 14.3683 195.467 17.8192 195.467H81.9059C83.6146 195.467 85.3066 195.131 86.8852 194.477C88.4639 193.823 89.8983 192.864 91.1065 191.656C92.3147 190.448 93.2732 189.013 93.9271 187.435C94.581 185.856 94.9175 184.164 94.9175 182.455V17.5446C94.9175 15.8359 94.581 14.1439 93.9271 12.5652C93.2732 10.9866 92.3147 9.55221 91.1065 8.34398C89.8983 7.13574 88.4639 6.17731 86.8852 5.52342C85.3066 4.86953 83.6146 4.53298 81.9059 4.53298Z" fill="white"/>
<path d="M89.6294 134.057H12.7876C12.4103 134.057 12.0486 133.907 11.7819 133.64C11.5151 133.373 11.3651 133.011 11.3646 132.634V113.573C11.3651 113.196 11.5151 112.834 11.7819 112.567C12.0486 112.301 12.4103 112.151 12.7876 112.15H89.6294C90.0067 112.151 90.3684 112.301 90.6351 112.567C90.9019 112.834 91.052 113.196 91.0524 113.573V132.634C91.0519 133.012 90.9018 133.373 90.635 133.64C90.3683 133.907 90.0066 134.057 89.6294 134.057ZM12.7876 112.719C12.5612 112.719 12.3442 112.81 12.1841 112.97C12.024 113.13 11.934 113.347 11.9338 113.573V132.634C11.934 132.861 12.024 133.078 12.1841 133.238C12.3442 133.398 12.5612 133.488 12.7876 133.488H89.6294C89.8558 133.488 90.0729 133.398 90.2329 133.238C90.393 133.078 90.483 132.861 90.4833 132.634V113.573C90.483 113.347 90.393 113.13 90.2329 112.97C90.0729 112.81 89.8558 112.719 89.6294 112.719H12.7876Z" fill="#E6E6E6"/>
<path d="M22.7483 129.08C26.049 129.08 28.7248 126.404 28.7248 123.104C28.7248 119.803 26.049 117.127 22.7483 117.127C19.4475 117.127 16.7717 119.803 16.7717 123.104C16.7717 126.404 19.4475 129.08 22.7483 129.08Z" fill="#E6E6E6"/>
<path d="M36.5514 119.119C36.2901 119.124 36.041 119.23 35.8577 119.417C35.6745 119.603 35.5718 119.854 35.5718 120.115C35.5718 120.377 35.6745 120.628 35.8577 120.814C36.041 121 36.2901 121.107 36.5514 121.111H83.5102C83.7744 121.116 84.0298 121.016 84.2202 120.833C84.4105 120.65 84.5204 120.399 84.5255 120.135C84.5306 119.87 84.4305 119.615 84.2473 119.425C84.0641 119.234 83.8128 119.124 83.5487 119.119L83.5429 119.119C83.5321 119.119 83.5212 119.119 83.5103 119.119H36.5514Z" fill="#E6E6E6"/>
<path d="M36.5514 125.096C36.2901 125.1 36.041 125.207 35.8577 125.393C35.6745 125.58 35.5718 125.831 35.5718 126.092C35.5718 126.353 35.6745 126.604 35.8577 126.79C36.041 126.977 36.2901 127.084 36.5514 127.088H83.5102C83.774 127.092 84.0284 126.991 84.2177 126.807C84.407 126.623 84.5158 126.372 84.5201 126.108C84.5245 125.844 84.424 125.59 84.2408 125.4C84.0576 125.21 83.8067 125.101 83.543 125.096C83.5321 125.096 83.5212 125.096 83.5102 125.096H36.5514Z" fill="#E6E6E6"/>
<path d="M89.6294 165.932H12.7876C12.4103 165.932 12.0486 165.782 11.7819 165.515C11.5151 165.248 11.3651 164.886 11.3646 164.509V145.448C11.3651 145.071 11.5151 144.709 11.7819 144.442C12.0486 144.176 12.4103 144.026 12.7876 144.025H89.6294C90.0067 144.026 90.3684 144.176 90.6351 144.442C90.9019 144.709 91.052 145.071 91.0524 145.448V164.509C91.0519 164.887 90.9018 165.248 90.635 165.515C90.3683 165.782 90.0066 165.932 89.6294 165.932ZM12.7876 144.594C12.5612 144.594 12.3442 144.685 12.1841 144.845C12.024 145.005 11.934 145.222 11.9338 145.448V164.509C11.934 164.736 12.024 164.953 12.1841 165.113C12.3442 165.273 12.5612 165.363 12.7876 165.363H89.6294C89.8558 165.363 90.0729 165.273 90.2329 165.113C90.393 164.953 90.483 164.736 90.4833 164.509V145.448C90.483 145.222 90.393 145.005 90.2329 144.845C90.0729 144.685 89.8558 144.594 89.6294 144.594H12.7876Z" fill="#E6E6E6"/>
<path d="M22.7483 160.955C26.049 160.955 28.7248 158.279 28.7248 154.979C28.7248 151.678 26.049 149.002 22.7483 149.002C19.4475 149.002 16.7717 151.678 16.7717 154.979C16.7717 158.279 19.4475 160.955 22.7483 160.955Z" fill="#E6E6E6"/>
<path d="M36.5514 150.994C36.2901 150.999 36.041 151.105 35.8577 151.292C35.6745 151.478 35.5718 151.729 35.5718 151.99C35.5718 152.252 35.6745 152.503 35.8577 152.689C36.041 152.875 36.2901 152.982 36.5514 152.986H83.5102C83.774 152.99 84.0284 152.889 84.2177 152.705C84.407 152.522 84.5158 152.27 84.5201 152.007C84.5245 151.743 84.424 151.488 84.2408 151.298C84.0576 151.109 83.8067 150.999 83.543 150.994C83.5321 150.994 83.5212 150.994 83.5102 150.994H36.5514Z" fill="#E6E6E6"/>
<path d="M36.5514 156.971C36.2901 156.975 36.041 157.082 35.8577 157.269C35.6745 157.455 35.5718 157.706 35.5718 157.967C35.5718 158.228 35.6745 158.479 35.8577 158.666C36.041 158.852 36.2901 158.959 36.5514 158.963H83.5102C83.774 158.967 84.0284 158.866 84.2177 158.682C84.407 158.498 84.5158 158.247 84.5201 157.983C84.5245 157.72 84.424 157.465 84.2408 157.275C84.0576 157.085 83.8067 156.976 83.543 156.971C83.5321 156.971 83.5212 156.971 83.5102 156.971H36.5514Z" fill="#E6E6E6"/>
<path d="M49.5913 94.5024C42.4236 94.5054 35.5484 91.6609 30.478 86.5948C25.4076 81.5286 22.5574 74.6557 22.5544 67.4881V67.4656C22.5544 67.4089 22.5544 67.3493 22.5577 67.2927C22.6402 52.4863 34.7681 40.4285 49.5913 40.4285C56.7619 40.4277 63.6391 43.2754 68.7101 48.3452C73.781 53.415 76.6303 60.2916 76.6311 67.4622C76.632 74.6328 73.7842 81.5101 68.7144 86.581C63.6446 91.652 56.768 94.5013 49.5974 94.5021H49.5913V94.5024ZM49.5913 40.997C42.6035 41.0127 35.9042 43.7851 30.949 48.712C25.9937 53.6389 23.1829 60.3222 23.1271 67.3097C23.1241 67.3702 23.1241 67.4197 23.1241 67.4647C23.1235 72.7002 24.6753 77.8183 27.5835 82.1718C30.4916 86.5253 34.6254 89.9186 39.4621 91.9228C44.2987 93.9269 49.6211 94.4518 54.7561 93.431C59.8911 92.4103 64.6081 89.8897 68.3106 86.1882C72.0131 82.4866 74.5348 77.7702 75.5568 72.6355C76.5788 67.5008 76.0553 62.1783 74.0524 57.3411C72.0494 52.5039 68.6571 48.3693 64.3043 45.46C59.9516 42.5508 54.8339 40.9977 49.5984 40.997H49.5913Z" fill="#E6E6E6"/>
<path d="M86.5961 127.193C92.667 127.193 97.5885 122.272 97.5885 116.201C97.5885 110.13 92.667 105.208 86.5961 105.208C80.5252 105.208 75.6038 110.13 75.6038 116.201C75.6038 122.272 80.5252 127.193 86.5961 127.193Z" fill="white"/>
<path d="M82.7784 121.146C82.7595 121.146 82.7407 121.146 82.7217 121.146H76.8133C76.0637 121.134 75.3487 120.828 74.8226 120.294C74.2965 119.759 74.0015 119.04 74.0012 118.29C74.0009 117.54 74.2953 116.82 74.821 116.286C75.3466 115.751 76.0614 115.444 76.8111 115.432H82.7244C82.7534 115.431 82.7849 115.431 82.8162 115.432C83.5704 115.442 84.2899 115.75 84.8178 116.289C85.3457 116.828 85.6391 117.554 85.6341 118.308C85.6291 119.062 85.3261 119.784 84.7911 120.316C84.2562 120.847 83.5326 121.146 82.7784 121.146Z" fill="#1A73E9"/>
<path d="M178.455 199.331H89.4077V199.947H178.455V199.331Z" fill="#3F3D56"/>
<path d="M94.8942 147.224C94.8243 147.115 94.7663 146.999 94.7211 146.878L93.3022 143.078C93.1371 142.634 93.1547 142.143 93.3513 141.712C93.5478 141.281 93.9072 140.946 94.3507 140.78L126.02 128.954C126.464 128.789 126.955 128.807 127.386 129.003C127.817 129.2 128.152 129.559 128.319 130.003L129.737 133.802C129.819 134.022 129.857 134.256 129.849 134.49C129.841 134.725 129.786 134.955 129.689 135.169C129.592 135.382 129.453 135.574 129.282 135.734C129.11 135.894 128.909 136.019 128.689 136.101L97.0195 147.926C96.6381 148.068 96.2197 148.076 95.8333 147.949C95.4469 147.821 95.1156 147.565 94.8942 147.224Z" fill="#1A73E9"/>
<path d="M125.92 127.972L113.041 133.108C112.635 133.23 112.292 133.504 112.083 133.872C111.873 134.24 111.814 134.675 111.916 135.086L113.411 141.07C113.47 141.307 113.581 141.527 113.735 141.716C113.889 141.904 114.084 142.056 114.304 142.161C114.524 142.265 114.764 142.319 115.008 142.32C115.252 142.32 115.492 142.267 115.713 142.163L128.627 136.084C129.036 135.931 129.367 135.621 129.549 135.224C129.731 134.827 129.747 134.373 129.595 133.964L128.043 128.941C127.89 128.531 127.58 128.199 127.182 128.018C126.784 127.836 126.33 127.82 125.92 127.972Z" fill="#2F2E41"/>
<path d="M149.488 165.254C149.084 165.3 148.675 165.207 148.331 164.99C147.987 164.773 147.727 164.445 147.594 164.061L136.57 132.104C136.494 131.882 136.461 131.647 136.476 131.413C136.49 131.179 136.55 130.95 136.653 130.739C136.755 130.528 136.899 130.339 137.074 130.184C137.25 130.028 137.454 129.909 137.676 129.832L141.511 128.51C141.958 128.356 142.449 128.385 142.875 128.593C143.301 128.8 143.627 129.168 143.781 129.616L154.805 161.573C154.959 162.021 154.929 162.512 154.722 162.938C154.514 163.363 154.147 163.69 153.699 163.844L149.865 165.167C149.743 165.209 149.616 165.238 149.488 165.254Z" fill="#1A73E9"/>
<path d="M144.603 129.069L148.834 142.272C148.998 142.663 149.005 143.102 148.854 143.498C148.703 143.894 148.406 144.216 148.023 144.399L142.456 147.052C142.236 147.157 141.995 147.212 141.751 147.213C141.508 147.214 141.267 147.16 141.046 147.057C140.826 146.954 140.631 146.803 140.476 146.615C140.32 146.427 140.208 146.207 140.148 145.971L136.622 132.141C136.481 131.727 136.508 131.275 136.699 130.882C136.891 130.489 137.23 130.188 137.642 130.044L142.505 128.047C142.919 127.905 143.372 127.932 143.765 128.124C144.159 128.315 144.46 128.655 144.603 129.069Z" fill="#2F2E41"/>
<path d="M131.793 199.512H127.737C127.263 199.512 126.809 199.323 126.474 198.988C126.14 198.653 125.951 198.199 125.951 197.726V163.92C125.951 163.447 126.14 162.993 126.474 162.658C126.809 162.323 127.263 162.135 127.737 162.134H131.793C132.266 162.135 132.721 162.323 133.055 162.658C133.39 162.993 133.579 163.447 133.579 163.92V197.726C133.579 198.199 133.39 198.653 133.055 198.988C132.721 199.323 132.266 199.512 131.793 199.512Z" fill="#2F2E41"/>
<path d="M139.815 199.512H135.759C135.286 199.512 134.832 199.323 134.497 198.988C134.162 198.653 133.973 198.199 133.973 197.726V163.92C133.973 163.447 134.162 162.993 134.497 162.658C134.832 162.323 135.286 162.135 135.759 162.134H139.815C140.289 162.135 140.743 162.323 141.078 162.658C141.413 162.993 141.601 163.447 141.602 163.92V197.726C141.601 198.199 141.413 198.653 141.078 198.988C140.743 199.323 140.289 199.512 139.815 199.512Z" fill="#2F2E41"/>
<path d="M143.158 167.895H124.728C124.218 167.894 123.729 167.691 123.369 167.331C123.008 166.97 122.805 166.481 122.805 165.971V136.032C122.805 133.078 123.978 130.245 126.067 128.156C128.156 126.067 130.989 124.894 133.943 124.894C136.897 124.894 139.73 126.067 141.819 128.156C143.908 130.245 145.081 133.078 145.081 136.032V165.971C145.081 166.481 144.878 166.97 144.517 167.331C144.157 167.691 143.668 167.894 143.158 167.895Z" fill="#CCCCCC"/>
<path d="M145.932 175.218H136.588V122.412L136.762 122.46C139.393 123.182 141.715 124.748 143.372 126.916C145.028 129.085 145.927 131.737 145.932 134.465V175.218Z" fill="#2F2E41"/>
<path d="M130.539 175.218H121.195V134.465C121.2 131.737 122.099 129.085 123.755 126.916C125.412 124.748 127.734 123.182 130.365 122.46L130.539 122.412V175.218Z" fill="#2F2E41"/>
<g clip-path="url(#clip1_20_3764)">
<path d="M142.818 113.433C142.49 113.723 142.029 113.959 141.552 114.081C141.2 114.17 140.837 114.197 140.507 114.129H140.503C140.399 114.111 140.298 114.078 140.202 114.037C139.359 113.687 138.643 113.056 137.919 112.384C137.643 112.131 137.375 111.863 137.111 111.586C136.953 111.421 136.796 111.251 136.646 111.077C136.578 111.003 136.515 110.927 136.45 110.852C137.108 110.347 137.743 109.708 138.31 108.895C138.388 108.994 138.486 109.125 138.611 109.275C138.737 109.432 138.89 109.614 139.056 109.802C139.625 110.439 140.384 111.172 141.098 111.483C141.142 111.501 141.183 111.511 141.228 111.511C141.362 111.517 141.496 111.443 141.552 111.309C141.63 111.132 141.55 110.927 141.376 110.85C140.745 110.574 140.035 109.871 139.509 109.27C139.335 109.071 139.182 108.887 139.058 108.732C138.849 108.469 138.721 108.296 138.72 108.288C138.717 108.285 138.713 108.282 138.71 108.278C139.101 107.621 139.448 106.869 139.735 106.006L139.751 105.941C139.754 105.924 139.791 105.652 139.924 105.462C140.011 105.663 140.208 105.896 140.512 106.213C140.554 106.256 140.597 106.299 140.64 106.346C140.687 106.388 140.72 106.424 140.736 106.442C140.837 106.558 140.94 106.676 141.045 106.793C141.413 107.21 141.797 107.632 142.203 108.036C142.311 108.143 142.425 108.256 142.536 108.361C142.901 108.711 143.247 109.041 143.508 109.438C143.587 109.562 143.659 109.686 143.717 109.816C143.87 110.135 143.96 110.47 143.986 110.809C144.055 111.742 143.652 112.701 142.818 113.432V113.433Z" fill="white" stroke="#007AFF" stroke-miterlimit="10"/>
<path d="M140.962 106.069C138.698 111.59 132.39 114.229 126.871 111.965C125.563 111.428 124.374 110.642 123.372 109.648C122.925 109.252 122.885 108.569 123.28 108.123C123.674 107.677 124.358 107.635 124.803 108.03C124.834 108.058 124.862 108.086 124.889 108.116C128.28 111.474 133.749 111.449 137.108 108.058C137.905 107.254 138.536 106.299 138.965 105.251C139.159 104.688 139.775 104.389 140.338 104.586C140.903 104.781 141.2 105.397 141.006 105.96C140.993 105.997 140.977 106.033 140.961 106.069H140.962Z" fill="white" stroke="#007AFF" stroke-miterlimit="10"/>
<g clip-path="url(#clip2_20_3764)">
<path d="M133.5 120C142.06 120 149 113.06 149 104.5C149 95.9396 142.06 89 133.5 89C124.94 89 118 95.9396 118 104.5C118 113.06 124.94 120 133.5 120Z" fill="#007AFF"/>
<path d="M141.818 113.433C141.49 113.723 141.029 113.959 140.552 114.081C140.2 114.17 139.837 114.197 139.507 114.129H139.503C139.399 114.111 139.298 114.078 139.202 114.037C138.359 113.687 137.643 113.056 136.919 112.384C136.643 112.131 136.375 111.863 136.111 111.586C135.953 111.421 135.796 111.251 135.646 111.077C135.578 111.003 135.515 110.927 135.45 110.852C136.108 110.347 136.743 109.708 137.31 108.895C137.388 108.994 137.486 109.125 137.611 109.275C137.737 109.432 137.89 109.614 138.056 109.802C138.625 110.439 139.384 111.172 140.098 111.483C140.142 111.501 140.183 111.511 140.228 111.511C140.362 111.517 140.496 111.443 140.552 111.309C140.63 111.132 140.55 110.927 140.376 110.85C139.745 110.574 139.035 109.871 138.509 109.27C138.335 109.071 138.182 108.887 138.058 108.732C137.849 108.469 137.721 108.296 137.72 108.288C137.717 108.285 137.713 108.282 137.71 108.278C138.101 107.621 138.448 106.869 138.735 106.006L138.751 105.941C138.754 105.924 138.791 105.652 138.924 105.462C139.011 105.663 139.208 105.896 139.512 106.213C139.554 106.256 139.597 106.299 139.64 106.346C139.687 106.388 139.72 106.424 139.736 106.442C139.837 106.558 139.94 106.676 140.045 106.793C140.413 107.21 140.797 107.632 141.203 108.036C141.311 108.143 141.425 108.256 141.536 108.361C141.901 108.711 142.247 109.041 142.508 109.438C142.587 109.562 142.659 109.686 142.717 109.816C142.87 110.135 142.96 110.47 142.986 110.809C143.055 111.742 142.652 112.701 141.818 113.432V113.433Z" fill="#2F2E41" stroke="#007AFF" stroke-miterlimit="10"/>
<path d="M140.962 106.069C138.698 111.59 132.39 114.229 126.871 111.965C125.563 111.428 124.374 110.642 123.372 109.648C122.925 109.252 122.885 108.569 123.28 108.123C123.674 107.677 124.358 107.635 124.803 108.03C124.834 108.058 124.862 108.086 124.889 108.116C128.28 111.474 133.749 111.449 137.108 108.058C137.905 107.254 138.536 106.299 138.965 105.251C139.159 104.688 139.775 104.389 140.338 104.586C140.903 104.781 141.2 105.397 141.006 105.96C140.993 105.997 140.977 106.033 140.961 106.069H140.962Z" fill="#2F2E41" stroke="#007AFF" stroke-width="0.4" stroke-miterlimit="10"/>
</g>
</g>
<path d="M150.432 100.607C150.432 100.607 151.256 77.7983 140.539 85.2181C140.539 85.2181 134.355 64.4701 119.241 95.5235L114.844 99.9204C114.844 99.9204 134.63 97.1723 153.042 105.691L150.432 100.607Z" fill="#2F2E41"/>
<path d="M129.15 102.463H126.19V103.013H129.15V102.463Z" fill="#2F2E41"/>
<path d="M135.494 102.463H132.533V103.013H135.494V102.463Z" fill="#2F2E41"/>
<path d="M101.012 148.626C100.615 148.81 100.162 148.829 99.7511 148.678C99.3404 148.528 99.0063 148.221 98.8223 147.824L89.3383 127.383C89.1544 126.986 89.1355 126.532 89.2859 126.122C89.4363 125.711 89.7436 125.377 90.1402 125.193C90.5369 125.009 90.9904 124.99 91.401 125.141C91.8116 125.291 92.1457 125.598 92.3298 125.995L101.814 146.436C101.998 146.833 102.017 147.286 101.866 147.697C101.716 148.108 101.409 148.442 101.012 148.626Z" fill="#3F3D56"/>
<path d="M91.2678 126.631C90.9762 126.631 90.6966 126.515 90.4905 126.309C90.2843 126.102 90.1685 125.823 90.1685 125.531V111.529H76.4281C76.1366 111.529 75.857 111.413 75.6508 111.207C75.4447 111.001 75.3289 110.721 75.3289 110.43C75.3289 110.138 75.4447 109.859 75.6508 109.653C75.857 109.446 76.1366 109.331 76.4281 109.331H91.2678C91.5593 109.331 91.8389 109.446 92.045 109.653C92.2512 109.859 92.367 110.138 92.367 110.43V125.531C92.367 125.823 92.2512 126.102 92.045 126.309C91.8389 126.515 91.5593 126.631 91.2678 126.631Z" fill="#1A73E9"/>
<path d="M91.5278 128.184C89.1612 129.282 86.5222 129.654 83.9444 129.252C81.3666 128.85 78.9659 127.693 77.0459 125.927C75.1258 124.16 73.7726 121.865 73.1574 119.329C72.5422 116.794 72.6926 114.133 73.5896 111.683C74.4867 109.233 76.09 107.105 78.1969 105.566C80.3038 104.027 82.8197 103.148 85.4263 103.039C88.033 102.931 90.6133 103.597 92.8411 104.955C95.0688 106.313 96.8439 108.3 97.9419 110.667C99.4102 113.841 99.5595 117.468 98.357 120.752C97.1546 124.036 94.6985 126.709 91.5278 128.184ZM81.8126 107.244C80.0376 108.068 78.5467 109.399 77.5284 111.07C76.5101 112.741 76.0101 114.676 76.0917 116.631C76.1733 118.586 76.8327 120.473 77.9867 122.053C79.1406 123.633 80.7373 124.836 82.5746 125.509C84.412 126.181 86.4076 126.294 88.3091 125.833C90.2106 125.371 91.9326 124.357 93.2573 122.916C94.582 121.476 95.4499 119.676 95.7513 117.743C96.0527 115.809 95.774 113.83 94.9505 112.055C93.8439 109.677 91.8392 107.835 89.3762 106.933C86.9133 106.031 84.1931 106.143 81.8126 107.244Z" fill="#3F3D56"/>
</g>
<defs>
<clipPath id="clip0_20_3764">
<rect width="178.455" height="200" fill="white"/>
</clipPath>
<clipPath id="clip1_20_3764">
<rect width="31" height="31" fill="white" transform="translate(118 89)"/>
</clipPath>
<clipPath id="clip2_20_3764">
<rect width="31" height="31" fill="white" transform="translate(118 89)"/>
</clipPath>
</defs>
</svg>
