<svg width="49" height="40" viewBox="0 0 49 40" fill="none" xmlns="http://www.w3.org/2000/svg">
<g clip-path="url(#clip0_20_649)">
<path d="M47.7987 0H0.838574C0.374364 0 0 0.374364 0 0.838574V39.1614C0 39.383 0.0883498 39.5972 0.245583 39.7544C0.402815 39.9117 0.616951 40 0.838574 40H47.7987C48.0204 40 48.2345 39.9117 48.3917 39.7544C48.549 39.5972 48.6373 39.3845 48.6373 39.1614V0.838574C48.6373 0.616951 48.549 0.402815 48.3917 0.245583C48.2345 0.0883498 48.0204 0 47.7987 0ZM1.67715 1.67715H23.832V7.42138H22.7074C22.2447 7.42138 21.8688 7.79724 21.8688 8.25996C21.8688 8.72267 22.2447 9.09853 22.7074 9.09853H23.8305V13.2914H22.7074C22.2447 13.2914 21.8688 13.6673 21.8688 14.13C21.8688 14.5927 22.2447 14.9686 22.7074 14.9686H23.8305V19.103H22.7074C22.2447 19.103 21.8688 19.4789 21.8688 19.9416C21.8688 20.4043 22.2447 20.7802 22.7074 20.7802H23.8305V24.9057H22.7074C22.2447 24.9057 21.8688 25.2815 21.8688 25.7442C21.8688 26.2069 22.2447 26.5828 22.7074 26.5828H23.8305V30.7173H22.7074C22.2447 30.7173 21.8688 31.0916 21.8688 31.5559C21.8688 32.0201 22.2447 32.3944 22.7074 32.3944H23.8305V38.3573H1.67565V1.67715H1.67715ZM46.9602 38.3229H25.5091V32.36H26.6322C27.0949 32.36 27.4708 31.9841 27.4708 31.5214C27.4708 31.0587 27.0949 30.6828 26.6322 30.6828H25.5091V26.5484H26.6322C27.0949 26.5484 27.4708 26.174 27.4708 25.7098C27.4708 25.2456 27.0949 24.8712 26.6322 24.8712H25.5091V20.7457H26.6322C27.0949 20.7457 27.4708 20.3699 27.4708 19.9072C27.4708 19.4444 27.0949 19.0686 26.6322 19.0686H25.5091V14.9671H26.6322C27.0949 14.9671 27.4708 14.5927 27.4708 14.1285C27.4708 13.6643 27.0949 13.2899 26.6322 13.2899H25.5091V9.09704H26.6322C27.0949 9.09704 27.4708 8.72117 27.4708 8.25846C27.4708 7.79575 27.0949 7.41989 26.6322 7.41989H25.5091V1.67715H46.9602V38.3229Z" fill="black"/>
<path d="M30.9344 11.7565H42.4064C42.8691 11.7565 43.245 11.3806 43.245 10.9179C43.245 10.4552 42.8706 10.0794 42.4064 10.0794H30.9344C30.4717 10.0794 30.0958 10.4537 30.0958 10.9179C30.0958 11.3821 30.4702 11.7565 30.9344 11.7565Z" fill="black"/>
<path d="M30.9344 17.5592H42.4064C42.8691 17.5592 43.245 17.1833 43.245 16.7206C43.245 16.2579 42.8706 15.882 42.4064 15.882H30.9344C30.4717 15.882 30.0958 16.2579 30.0958 16.7206C30.0958 17.1833 30.4702 17.5592 30.9344 17.5592Z" fill="black"/>
<path d="M42.4064 21.6771H40.4612C39.9985 21.6771 39.6227 22.053 39.6227 22.5157C39.6227 22.9784 39.9985 23.3543 40.4612 23.3543H42.4064C42.8691 23.3543 43.245 22.9799 43.245 22.5157C43.245 22.0515 42.8706 21.6771 42.4064 21.6771Z" fill="black"/>
<path d="M30.9344 23.3543H36.6697C37.1324 23.3543 37.5082 22.9799 37.5082 22.5157C37.5082 22.0515 37.1324 21.6771 36.6697 21.6771H30.9344C30.4717 21.6771 30.0958 22.053 30.0958 22.5157C30.0958 22.9784 30.4702 23.3543 30.9344 23.3543Z" fill="black"/>
<path d="M30.9344 29.1749H34.0207C34.4834 29.1749 34.8592 28.799 34.8592 28.3363C34.8592 27.8736 34.4849 27.4978 34.0207 27.4978H30.9344C30.4717 27.4978 30.0958 27.8736 30.0958 28.3363C30.0958 28.799 30.4702 29.1749 30.9344 29.1749Z" fill="black"/>
<path d="M18.4486 11.8823H5.7607C5.44324 11.8853 5.15423 12.0665 5.01497 12.3525C4.88769 12.625 4.91614 12.9455 5.08984 13.1911L11.2788 21.5259V27.2117H8.31836C7.85564 27.2117 7.47978 27.5876 7.47978 28.0503C7.47978 28.513 7.85564 28.8889 8.31836 28.8889H15.9329C16.3956 28.8889 16.7715 28.513 16.7715 28.0503C16.7715 27.5876 16.3956 27.2117 15.9329 27.2117H12.956V21.5589L19.1449 13.224C19.3187 12.9784 19.3471 12.658 19.2198 12.3854C19.0866 12.0785 18.7826 11.8808 18.4486 11.8823ZM12.0919 19.8742L7.40491 13.5595H16.7715L12.0919 19.8742Z" fill="black"/>
</g>
<defs>
<clipPath id="clip0_20_649">
<rect width="48.6373" height="40" fill="white"/>
</clipPath>
</defs>
</svg>
