<svg width="41" height="40" viewBox="0 0 41 40" fill="none" xmlns="http://www.w3.org/2000/svg">
<path d="M11.8543 32.4863C11.48 32.4677 11.1915 32.1484 11.2102 31.7741C11.2288 31.3998 11.548 31.1113 11.9224 31.1299L16.3659 31.3714C16.5029 31.3139 16.5985 31.2183 16.656 31.1081L16.669 31.074C16.7143 30.9671 16.7322 30.8463 16.7224 30.7264C16.7127 30.6065 16.6763 30.4931 16.6155 30.4023C16.5353 30.2824 16.404 30.1908 16.2233 30.1657L12.5398 29.5191C11.7863 29.387 11.0716 29.3465 10.3699 29.4016C9.66334 29.4575 8.96407 29.609 8.24617 29.857L4.52377 31.1421L5.2676 36.7484L11.8073 36.9347C12.5139 36.955 13.171 36.8813 13.7965 36.7103C14.418 36.5401 15.0201 36.2679 15.6205 35.8895L25.2538 29.8124C25.3332 29.7346 25.381 29.635 25.394 29.5329C25.407 29.4259 25.3851 29.3133 25.3259 29.2169L25.3097 29.195C25.2376 29.0929 25.1323 29.0256 25.0213 29.0013C24.9167 28.9778 24.8033 28.99 24.7028 29.0402L18.6671 32.3016C18.3624 32.4653 18.0537 32.5844 17.7312 32.6597L17.7021 32.667C17.369 32.7416 17.0279 32.7675 16.6706 32.748L11.8551 32.4863H11.8543ZM22.742 3.56116C24.117 3.15683 25.394 3.41774 26.7091 3.68675C27.7916 3.90795 28.9049 4.13564 30.066 3.91525V1.36045H22.742V3.56116ZM30.066 5.29433C28.7607 5.48961 27.5842 5.24977 26.4384 5.0156C25.176 4.75793 23.9541 4.50837 22.742 5.00101V6.70745C22.742 7.71462 23.1544 8.63104 23.8172 9.29466C24.4808 9.95746 25.3972 10.3699 26.4044 10.3699C27.4116 10.3699 28.298 9.97124 28.9592 9.32707L28.99 9.29385C29.6536 8.63023 30.066 7.71381 30.066 6.70826V5.29595V5.29433ZM23.9598 23.6065C23.5839 23.6065 23.2792 23.3019 23.2792 22.9259C23.2792 22.5499 23.5839 22.2453 23.9598 22.2453H25.723V11.6833C24.6137 11.531 23.6155 11.0124 22.8578 10.2556C21.9455 9.34246 21.3807 8.08735 21.3807 6.70745V0.68063C21.3807 0.304663 21.6854 0 22.0613 0H30.7467C31.1226 0 31.4273 0.304663 31.4273 0.68063V6.70745C31.4273 8.08897 30.8625 9.3457 29.9526 10.2556L29.9121 10.2929C29.1593 11.0295 28.1765 11.5334 27.0842 11.6833V22.2453H28.8466C29.2225 22.2453 29.5272 22.5499 29.5272 22.9259C29.5272 23.3019 29.2225 23.6065 28.8466 23.6065H23.9598ZM11.9337 3.56116C13.3088 3.15683 14.5858 3.41774 15.9016 3.68675C16.9842 3.90795 18.0975 4.13564 19.2586 3.91525V1.36045H11.9345V3.56116H11.9337ZM19.2578 5.29433C17.9524 5.48961 16.7759 5.24977 15.6302 5.0156C14.3678 4.75793 13.1459 4.50837 11.9337 5.00101V6.70745C11.9337 7.713 12.3462 8.63023 13.0098 9.29304C13.6726 9.95746 14.5882 10.3691 15.5954 10.3691C16.6025 10.3691 17.5189 9.95665 18.1826 9.29385C18.8454 8.63023 19.2578 7.71381 19.2578 6.70664V5.29433ZM13.1516 23.6065C12.7756 23.6065 12.4709 23.3019 12.4709 22.9259C12.4709 22.5499 12.7756 22.2453 13.1516 22.2453H14.9147V11.6842C13.8047 11.5318 12.8072 11.0124 12.0496 10.2556C11.1364 9.3457 10.5725 8.08897 10.5725 6.70745V0.68063C10.5733 0.304663 10.8779 0 11.2539 0H19.9392C20.3152 0 20.6199 0.304663 20.6199 0.68063V6.70745C20.6199 8.08735 20.0543 9.34327 19.1452 10.2532C18.3851 11.0124 17.3869 11.5318 16.2776 11.6842V22.2461H18.04C18.4159 22.2461 18.7206 22.5507 18.7206 22.9267C18.7206 23.3027 18.4159 23.6073 18.04 23.6073H13.1532L13.1516 23.6065ZM1.84419 23.7783H40.1548C40.5307 23.7783 40.8354 24.083 40.8354 24.4589C40.8354 25.2514 40.5105 25.9733 39.9879 26.4968C39.4644 27.0202 38.7425 27.3468 37.9484 27.3468H4.05057C3.2565 27.3468 2.53373 27.0218 2.01111 26.4992L1.97221 26.4563C1.47309 25.9369 1.16437 25.2311 1.16437 24.4589C1.16437 24.083 1.46903 23.7783 1.845 23.7783H1.84419ZM39.3137 25.1396H2.68688C2.75413 25.2749 2.84164 25.3997 2.94535 25.5091L2.97452 25.5366C3.25083 25.8129 3.63247 25.9855 4.05138 25.9855H37.95C38.3705 25.9855 38.7522 25.8137 39.0269 25.5398C39.1427 25.424 39.2408 25.2887 39.3145 25.1404L39.3137 25.1396ZM4.34146 29.7719L7.80376 28.5759C8.64077 28.2867 9.44943 28.1108 10.2629 28.0468C11.0813 27.9828 11.9062 28.0282 12.7724 28.1805L16.3902 28.8182C17.0004 28.8968 17.4557 29.2193 17.7426 29.6487C17.9354 29.938 18.0497 30.2743 18.078 30.6105C18.091 30.7669 18.087 30.9257 18.0659 31.0829L24.0506 27.8516C24.4492 27.6385 24.8981 27.5866 25.313 27.6782C25.7473 27.7738 26.1476 28.0266 26.4198 28.4147L26.4506 28.4625C26.6985 28.8401 26.7917 29.2825 26.7374 29.7038C26.6807 30.1463 26.4644 30.5676 26.103 30.8739L26.0106 30.9395L16.3416 37.0393C15.6334 37.4865 14.9099 37.8106 14.1498 38.0189C13.3922 38.2255 12.6054 38.3146 11.7668 38.2911L5.44505 38.1121L5.54147 38.8397C5.58928 39.2108 5.32837 39.5519 4.95726 39.6005L1.98923 39.9943C1.61812 40.0421 1.277 39.7812 1.22838 39.4101L0.00567858 30.1754C-0.0421276 29.8043 0.218781 29.4632 0.589886 29.4146L3.55873 29.0208C3.92984 28.973 4.27096 29.2339 4.31958 29.605L4.34146 29.7703V29.7719ZM3.06365 30.4558L1.43986 30.6713L2.48755 38.5601L4.11134 38.3446L3.06446 30.4558H3.06365Z" fill="black"/>
</svg>
