<svg width="179" height="200" viewBox="0 0 179 200" fill="none" xmlns="http://www.w3.org/2000/svg">
<g clip-path="url(#clip0_20_4036)">
<path d="M178.455 199.331H89.4078V199.947H178.455V199.331Z" fill="#3F3D56"/>
<path d="M107.011 160.444C106.895 160.386 106.785 160.317 106.684 160.236L103.516 157.703C103.147 157.407 102.91 156.977 102.857 156.506C102.805 156.035 102.941 155.563 103.236 155.193L124.344 128.787C124.64 128.417 125.071 128.18 125.542 128.128C126.012 128.075 126.485 128.212 126.855 128.507L130.023 131.04C130.206 131.186 130.359 131.367 130.472 131.573C130.585 131.778 130.657 132.004 130.683 132.237C130.709 132.47 130.689 132.706 130.624 132.931C130.558 133.157 130.449 133.367 130.303 133.55L109.195 159.956C108.941 160.274 108.586 160.495 108.189 160.584C107.791 160.673 107.376 160.623 107.011 160.444Z" fill="#007AFF"/>
<path d="M123.754 127.996L115.338 139.014C115.052 139.327 114.898 139.738 114.907 140.162C114.917 140.586 115.089 140.989 115.388 141.29L119.743 145.658C119.915 145.83 120.123 145.963 120.352 146.045C120.581 146.128 120.826 146.158 121.068 146.135C121.311 146.112 121.545 146.035 121.755 145.91C121.964 145.785 122.143 145.616 122.279 145.414L130.241 133.568C130.513 133.226 130.639 132.79 130.591 132.356C130.543 131.922 130.324 131.524 129.984 131.251L126.073 127.738C125.731 127.465 125.295 127.339 124.86 127.387C124.425 127.435 124.027 127.655 123.754 127.996Z" fill="#2F2E41"/>
<path d="M149.488 165.253C149.083 165.3 148.675 165.207 148.331 164.99C147.987 164.773 147.727 164.445 147.594 164.061L136.57 132.103C136.494 131.882 136.461 131.647 136.476 131.413C136.49 131.179 136.55 130.95 136.653 130.739C136.755 130.528 136.899 130.339 137.074 130.184C137.25 130.028 137.454 129.909 137.676 129.832L141.51 128.51C141.958 128.355 142.449 128.385 142.875 128.593C143.301 128.8 143.627 129.168 143.781 129.616L154.805 161.573C154.959 162.021 154.929 162.512 154.722 162.938C154.514 163.363 154.147 163.689 153.699 163.844L149.865 165.167C149.743 165.209 149.616 165.238 149.488 165.253Z" fill="#007AFF"/>
<path d="M144.603 129.069L148.834 142.272C148.998 142.663 149.005 143.102 148.854 143.498C148.703 143.894 148.406 144.216 148.023 144.399L142.455 147.052C142.235 147.157 141.995 147.212 141.751 147.213C141.508 147.214 141.267 147.16 141.046 147.057C140.826 146.954 140.631 146.803 140.475 146.615C140.32 146.427 140.208 146.207 140.148 145.971L136.622 132.141C136.48 131.727 136.508 131.275 136.699 130.882C136.891 130.489 137.23 130.188 137.642 130.044L142.505 128.047C142.919 127.905 143.372 127.932 143.765 128.124C144.159 128.315 144.46 128.655 144.603 129.069Z" fill="#2F2E41"/>
<path d="M131.793 199.512H127.737C127.263 199.512 126.809 199.323 126.474 198.988C126.14 198.654 125.951 198.2 125.951 197.726V163.92C125.951 163.447 126.14 162.993 126.474 162.658C126.809 162.323 127.263 162.135 127.737 162.134H131.793C132.266 162.135 132.721 162.323 133.055 162.658C133.39 162.993 133.579 163.447 133.579 163.92V197.726C133.579 198.2 133.39 198.654 133.055 198.988C132.721 199.323 132.266 199.512 131.793 199.512Z" fill="#2F2E41"/>
<path d="M139.815 199.512H135.759C135.286 199.512 134.831 199.323 134.497 198.988C134.162 198.654 133.973 198.2 133.973 197.726V163.92C133.973 163.447 134.162 162.993 134.497 162.658C134.831 162.323 135.286 162.135 135.759 162.134H139.815C140.289 162.135 140.743 162.323 141.078 162.658C141.413 162.993 141.601 163.447 141.601 163.92V197.726C141.601 198.2 141.413 198.654 141.078 198.988C140.743 199.323 140.289 199.512 139.815 199.512Z" fill="#2F2E41"/>
<path d="M143.158 167.895H124.728C124.218 167.894 123.73 167.691 123.369 167.331C123.008 166.97 122.805 166.481 122.805 165.971V136.032C122.805 133.078 123.978 130.245 126.067 128.156C128.156 126.067 130.989 124.894 133.943 124.894C136.897 124.894 139.73 126.067 141.819 128.156C143.908 130.245 145.082 133.078 145.082 136.032V165.971C145.081 166.481 144.878 166.97 144.517 167.331C144.157 167.691 143.668 167.894 143.158 167.895Z" fill="#CCCCCC"/>
<path d="M145.932 175.218H136.588V122.412L136.762 122.46C139.393 123.182 141.715 124.747 143.372 126.916C145.028 129.085 145.927 131.737 145.932 134.465V175.218Z" fill="#2F2E41"/>
<path d="M130.539 175.218H121.195V134.465C121.2 131.737 122.099 129.085 123.755 126.916C125.412 124.748 127.734 123.182 130.365 122.46L130.539 122.412V175.218Z" fill="#2F2E41"/>
<g clip-path="url(#clip1_20_4036)">
<path d="M142.818 113.433C142.49 113.722 142.029 113.959 141.552 114.081C141.2 114.17 140.838 114.197 140.507 114.129H140.503C140.399 114.111 140.298 114.078 140.202 114.037C139.36 113.687 138.643 113.055 137.919 112.384C137.644 112.131 137.375 111.862 137.111 111.586C136.953 111.421 136.797 111.251 136.646 111.076C136.578 111.003 136.516 110.927 136.451 110.852C137.108 110.347 137.743 109.708 138.311 108.895C138.388 108.994 138.486 109.125 138.611 109.275C138.737 109.432 138.89 109.614 139.056 109.802C139.625 110.438 140.384 111.172 141.098 111.483C141.142 111.501 141.184 111.511 141.228 111.511C141.362 111.517 141.496 111.443 141.552 111.309C141.631 111.132 141.55 110.927 141.376 110.849C140.745 110.574 140.035 109.871 139.509 109.27C139.335 109.071 139.182 108.887 139.058 108.732C138.849 108.469 138.722 108.296 138.72 108.288C138.717 108.285 138.713 108.282 138.711 108.278C139.101 107.621 139.448 106.869 139.735 106.006L139.751 105.941C139.754 105.924 139.791 105.651 139.924 105.462C140.011 105.662 140.208 105.896 140.512 106.213C140.554 106.256 140.597 106.299 140.64 106.346C140.687 106.388 140.72 106.424 140.737 106.442C140.838 106.558 140.94 106.676 141.045 106.793C141.413 107.21 141.797 107.632 142.204 108.036C142.311 108.142 142.425 108.256 142.536 108.361C142.901 108.711 143.247 109.041 143.509 109.438C143.587 109.562 143.659 109.686 143.718 109.816C143.87 110.135 143.96 110.47 143.986 110.809C144.055 111.742 143.653 112.701 142.818 113.432V113.433Z" fill="white" stroke="#007AFF" stroke-miterlimit="10"/>
<path d="M140.962 106.069C138.698 111.59 132.39 114.229 126.871 111.965C125.563 111.428 124.374 110.642 123.372 109.648C122.925 109.252 122.885 108.569 123.28 108.123C123.674 107.678 124.358 107.635 124.803 108.03C124.834 108.058 124.862 108.086 124.889 108.116C128.28 111.474 133.749 111.449 137.108 108.058C137.905 107.254 138.536 106.299 138.965 105.251C139.159 104.688 139.775 104.389 140.338 104.586C140.903 104.781 141.2 105.397 141.006 105.96C140.993 105.997 140.977 106.033 140.961 106.069H140.962Z" fill="white" stroke="#007AFF" stroke-miterlimit="10"/>
<g clip-path="url(#clip2_20_4036)">
<path d="M133.5 120C142.06 120 149 113.06 149 104.5C149 95.9396 142.06 89 133.5 89C124.94 89 118 95.9396 118 104.5C118 113.06 124.94 120 133.5 120Z" fill="#007AFF"/>
<path d="M141.818 113.433C141.49 113.723 141.029 113.959 140.552 114.081C140.2 114.17 139.837 114.197 139.507 114.129H139.503C139.399 114.111 139.298 114.078 139.202 114.037C138.359 113.687 137.643 113.056 136.919 112.384C136.643 112.131 136.375 111.863 136.111 111.586C135.953 111.421 135.796 111.251 135.646 111.077C135.578 111.003 135.515 110.927 135.45 110.852C136.108 110.347 136.743 109.708 137.31 108.895C137.388 108.994 137.486 109.125 137.611 109.275C137.737 109.432 137.89 109.614 138.056 109.802C138.625 110.439 139.384 111.172 140.098 111.483C140.142 111.501 140.183 111.511 140.228 111.511C140.362 111.517 140.496 111.443 140.552 111.309C140.63 111.132 140.55 110.927 140.376 110.85C139.745 110.574 139.035 109.871 138.509 109.27C138.335 109.071 138.182 108.887 138.058 108.732C137.849 108.469 137.721 108.296 137.72 108.288C137.717 108.285 137.713 108.282 137.71 108.278C138.101 107.621 138.448 106.869 138.735 106.006L138.751 105.941C138.754 105.924 138.791 105.652 138.924 105.462C139.011 105.663 139.208 105.896 139.512 106.213C139.554 106.256 139.597 106.299 139.64 106.346C139.687 106.388 139.72 106.424 139.736 106.442C139.837 106.558 139.94 106.676 140.045 106.793C140.413 107.21 140.797 107.632 141.203 108.036C141.311 108.143 141.425 108.256 141.536 108.361C141.901 108.711 142.247 109.041 142.508 109.438C142.587 109.562 142.659 109.686 142.717 109.816C142.87 110.135 142.96 110.47 142.986 110.809C143.055 111.742 142.652 112.701 141.818 113.432V113.433Z" fill="#2F2E41" stroke="#007AFF" stroke-miterlimit="10"/>
<path d="M140.962 106.069C138.698 111.59 132.39 114.229 126.871 111.965C125.563 111.428 124.374 110.642 123.372 109.648C122.925 109.252 122.885 108.569 123.28 108.123C123.674 107.678 124.358 107.635 124.803 108.03C124.834 108.058 124.862 108.086 124.889 108.116C128.28 111.474 133.749 111.449 137.108 108.058C137.905 107.254 138.536 106.299 138.965 105.251C139.159 104.688 139.775 104.389 140.338 104.586C140.903 104.781 141.2 105.397 141.006 105.96C140.993 105.997 140.977 106.033 140.961 106.069H140.962Z" fill="#2F2E41" stroke="#007AFF" stroke-width="0.4" stroke-miterlimit="10"/>
</g>
</g>
<path d="M150.432 100.607C150.432 100.607 151.256 77.7983 140.539 85.2181C140.539 85.2181 134.355 64.4701 119.241 95.5235L114.844 99.9204C114.844 99.9204 134.63 97.1723 153.042 105.691L150.432 100.607Z" fill="#2F2E41"/>
<path d="M129.15 102.463H126.19V103.013H129.15V102.463Z" fill="#2F2E41"/>
<path d="M135.494 102.463H132.533V103.013H135.494V102.463Z" fill="#2F2E41"/>
</g>
<defs>
<clipPath id="clip0_20_4036">
<rect width="178.455" height="200" fill="white"/>
</clipPath>
<clipPath id="clip1_20_4036">
<rect width="31" height="31" fill="white" transform="translate(118 89)"/>
</clipPath>
<clipPath id="clip2_20_4036">
<rect width="31" height="31" fill="white" transform="translate(118 89)"/>
</clipPath>
</defs>
</svg>
