<svg width="179" height="200" viewBox="0 0 179 200" fill="none" xmlns="http://www.w3.org/2000/svg">
    <g clip-path="url(#clip0_0_1)">
        <path d="M178.455 199.331H89.4078V199.947H178.455V199.331Z" fill="#3F3D56"/>
        <path d="M94.8942 147.224C94.8243 147.115 94.7663 146.999 94.7211 146.878L93.3022 143.078C93.1371 142.634 93.1547 142.143 93.3513 141.712C93.5478 141.281 93.9072 140.946 94.3507 140.78L126.02 128.954C126.464 128.789 126.955 128.807 127.386 129.003C127.817 129.2 128.152 129.559 128.319 130.003L129.737 133.803C129.819 134.022 129.857 134.256 129.849 134.491C129.841 134.725 129.786 134.955 129.689 135.169C129.592 135.382 129.453 135.574 129.282 135.734C129.11 135.894 128.909 136.019 128.689 136.101L97.0195 147.926C96.6381 148.069 96.2197 148.076 95.8333 147.949C95.4469 147.821 95.1156 147.565 94.8942 147.224Z"
              fill="#007AFF"/>
        <path d="M125.92 127.972L113.041 133.108C112.635 133.23 112.292 133.503 112.083 133.872C111.873 134.24 111.814 134.675 111.916 135.086L113.411 141.07C113.47 141.307 113.581 141.527 113.735 141.716C113.889 141.904 114.084 142.056 114.304 142.16C114.524 142.265 114.764 142.319 115.008 142.32C115.252 142.32 115.492 142.266 115.713 142.163L128.627 136.084C129.036 135.931 129.367 135.621 129.549 135.224C129.731 134.826 129.747 134.373 129.595 133.963L128.043 128.941C127.89 128.531 127.58 128.199 127.182 128.018C126.784 127.836 126.33 127.82 125.92 127.972Z"
              fill="#2F2E41"/>
        <path d="M149.488 165.253C149.084 165.3 148.675 165.207 148.331 164.99C147.987 164.773 147.727 164.445 147.594 164.061L136.57 132.103C136.494 131.882 136.461 131.647 136.476 131.413C136.49 131.179 136.55 130.95 136.653 130.739C136.755 130.528 136.899 130.339 137.074 130.184C137.25 130.028 137.454 129.909 137.676 129.832L141.511 128.51C141.958 128.355 142.449 128.385 142.875 128.593C143.301 128.8 143.627 129.168 143.781 129.616L154.805 161.573C154.959 162.021 154.929 162.512 154.722 162.938C154.514 163.363 154.147 163.689 153.699 163.844L149.865 165.167C149.743 165.209 149.616 165.238 149.488 165.253Z"
              fill="#007AFF"/>
        <path d="M144.603 129.069L148.834 142.272C148.998 142.663 149.005 143.102 148.854 143.498C148.703 143.894 148.406 144.216 148.023 144.399L142.455 147.052C142.235 147.157 141.995 147.212 141.751 147.213C141.508 147.214 141.267 147.16 141.046 147.057C140.826 146.954 140.631 146.803 140.475 146.615C140.32 146.427 140.208 146.207 140.148 145.971L136.622 132.141C136.48 131.727 136.508 131.275 136.699 130.882C136.891 130.489 137.23 130.188 137.642 130.044L142.505 128.047C142.919 127.905 143.372 127.932 143.765 128.124C144.159 128.315 144.46 128.655 144.603 129.069Z"
              fill="#2F2E41"/>
        <path d="M131.793 199.512H127.737C127.263 199.512 126.809 199.323 126.474 198.988C126.14 198.654 125.951 198.2 125.951 197.726V163.92C125.951 163.447 126.14 162.993 126.474 162.658C126.809 162.323 127.263 162.135 127.737 162.134H131.793C132.266 162.135 132.721 162.323 133.055 162.658C133.39 162.993 133.579 163.447 133.579 163.92V197.726C133.579 198.2 133.39 198.654 133.055 198.988C132.721 199.323 132.266 199.512 131.793 199.512Z"
              fill="#2F2E41"/>
        <path d="M139.815 199.512H135.759C135.286 199.512 134.832 199.323 134.497 198.988C134.162 198.654 133.973 198.2 133.973 197.726V163.92C133.973 163.447 134.162 162.993 134.497 162.658C134.832 162.323 135.286 162.135 135.759 162.134H139.815C140.289 162.135 140.743 162.323 141.078 162.658C141.413 162.993 141.601 163.447 141.602 163.92V197.726C141.601 198.2 141.413 198.654 141.078 198.988C140.743 199.323 140.289 199.512 139.815 199.512Z"
              fill="#2F2E41"/>
        <path d="M143.158 167.895H124.728C124.218 167.894 123.73 167.691 123.369 167.331C123.008 166.97 122.805 166.481 122.805 165.971V136.032C122.805 133.078 123.978 130.245 126.067 128.156C128.156 126.067 130.989 124.894 133.943 124.894C136.897 124.894 139.73 126.067 141.819 128.156C143.908 130.245 145.082 133.078 145.082 136.032V165.971C145.081 166.481 144.878 166.97 144.517 167.331C144.157 167.691 143.668 167.894 143.158 167.895Z"
              fill="#CCCCCC"/>
        <path d="M145.932 175.218H136.588V122.412L136.762 122.46C139.393 123.182 141.715 124.747 143.372 126.916C145.028 129.085 145.927 131.737 145.932 134.465V175.218Z"
              fill="#2F2E41"/>
        <path d="M130.538 175.218H121.195V134.465C121.199 131.737 122.099 129.085 123.755 126.916C125.412 124.748 127.733 123.182 130.365 122.46L130.538 122.412V175.218Z"
              fill="#2F2E41"/>
    </g>
    <g clip-path="url(#clip1_0_1)">
        <path d="M142.818 113.433C142.49 113.722 142.029 113.959 141.552 114.081C141.2 114.17 140.838 114.197 140.507 114.129H140.503C140.399 114.111 140.298 114.078 140.202 114.037C139.36 113.687 138.643 113.055 137.919 112.384C137.644 112.131 137.375 111.862 137.111 111.586C136.953 111.421 136.797 111.251 136.646 111.076C136.578 111.003 136.516 110.927 136.451 110.852C137.108 110.347 137.743 109.708 138.311 108.895C138.388 108.994 138.486 109.125 138.611 109.275C138.737 109.432 138.89 109.614 139.056 109.802C139.625 110.438 140.384 111.172 141.098 111.483C141.142 111.501 141.184 111.511 141.228 111.511C141.362 111.517 141.496 111.443 141.552 111.309C141.631 111.132 141.55 110.927 141.376 110.849C140.745 110.574 140.035 109.871 139.509 109.27C139.335 109.071 139.182 108.887 139.058 108.732C138.849 108.469 138.722 108.296 138.72 108.288C138.717 108.285 138.713 108.282 138.711 108.278C139.101 107.621 139.448 106.869 139.735 106.006L139.751 105.941C139.754 105.924 139.791 105.651 139.924 105.462C140.011 105.662 140.208 105.896 140.512 106.213C140.554 106.256 140.597 106.299 140.64 106.346C140.687 106.388 140.72 106.424 140.737 106.442C140.838 106.558 140.94 106.676 141.045 106.793C141.413 107.21 141.797 107.632 142.204 108.036C142.311 108.143 142.425 108.256 142.536 108.361C142.901 108.711 143.247 109.041 143.509 109.438C143.587 109.562 143.659 109.686 143.718 109.816C143.87 110.135 143.96 110.47 143.986 110.809C144.055 111.742 143.653 112.701 142.818 113.432V113.433Z"
              fill="white" stroke="#007AFF" stroke-miterlimit="10"/>
        <path d="M140.962 106.069C138.698 111.59 132.39 114.229 126.871 111.965C125.563 111.428 124.374 110.642 123.372 109.648C122.925 109.252 122.885 108.569 123.28 108.123C123.674 107.677 124.358 107.635 124.803 108.03C124.834 108.058 124.862 108.086 124.889 108.116C128.28 111.474 133.749 111.449 137.108 108.058C137.905 107.254 138.536 106.299 138.965 105.251C139.159 104.688 139.775 104.389 140.338 104.586C140.903 104.781 141.2 105.397 141.006 105.96C140.993 105.997 140.977 106.033 140.961 106.069H140.962Z"
              fill="white" stroke="#007AFF" stroke-miterlimit="10"/>
        <g clip-path="url(#clip2_0_1)">
            <path d="M133.5 120C142.06 120 149 113.06 149 104.5C149 95.9396 142.06 89 133.5 89C124.94 89 118 95.9396 118 104.5C118 113.06 124.94 120 133.5 120Z"
                  fill="#007AFF"/>
            <path d="M141.818 113.433C141.49 113.723 141.029 113.959 140.552 114.081C140.2 114.17 139.837 114.197 139.507 114.129H139.503C139.399 114.111 139.298 114.078 139.202 114.037C138.359 113.687 137.643 113.056 136.919 112.384C136.643 112.131 136.375 111.863 136.111 111.586C135.953 111.421 135.796 111.251 135.646 111.077C135.578 111.003 135.515 110.927 135.45 110.852C136.108 110.347 136.743 109.708 137.31 108.895C137.388 108.994 137.486 109.125 137.611 109.275C137.737 109.432 137.89 109.614 138.056 109.802C138.625 110.439 139.384 111.172 140.098 111.483C140.142 111.501 140.183 111.511 140.228 111.511C140.362 111.517 140.496 111.443 140.552 111.309C140.63 111.132 140.55 110.927 140.376 110.85C139.745 110.574 139.035 109.871 138.509 109.27C138.335 109.071 138.182 108.887 138.058 108.732C137.849 108.469 137.721 108.296 137.72 108.288C137.717 108.285 137.713 108.282 137.71 108.278C138.101 107.621 138.448 106.869 138.735 106.006L138.751 105.941C138.754 105.924 138.791 105.652 138.924 105.462C139.011 105.663 139.208 105.896 139.512 106.213C139.554 106.256 139.597 106.299 139.64 106.346C139.687 106.388 139.72 106.424 139.736 106.442C139.837 106.558 139.94 106.676 140.045 106.793C140.413 107.21 140.797 107.632 141.203 108.036C141.311 108.143 141.425 108.256 141.536 108.361C141.901 108.711 142.247 109.041 142.508 109.438C142.587 109.562 142.659 109.686 142.717 109.816C142.87 110.135 142.96 110.47 142.986 110.809C143.055 111.742 142.652 112.701 141.818 113.432V113.433Z"
                  fill="#2F2E41" stroke="#007AFF" stroke-miterlimit="10"/>
            <path d="M140.962 106.069C138.698 111.59 132.39 114.229 126.871 111.965C125.563 111.428 124.374 110.642 123.372 109.648C122.925 109.252 122.885 108.569 123.28 108.123C123.674 107.677 124.358 107.635 124.803 108.03C124.834 108.058 124.862 108.086 124.889 108.116C128.28 111.474 133.749 111.449 137.108 108.058C137.905 107.254 138.536 106.299 138.965 105.251C139.159 104.688 139.775 104.389 140.338 104.586C140.903 104.781 141.2 105.397 141.006 105.96C140.993 105.997 140.977 106.033 140.961 106.069H140.962Z"
                  fill="#2F2E41" stroke="#007AFF" stroke-width="0.4" stroke-miterlimit="10"/>
        </g>
    </g>
    <path d="M150.432 100.607C150.432 100.607 151.256 77.7983 140.539 85.2181C140.539 85.2181 134.355 64.4701 119.241 95.5235L114.844 99.9204C114.844 99.9204 134.63 97.1723 153.042 105.691L150.432 100.607Z"
          fill="#2F2E41"/>
    <path d="M129.15 102.463H126.19V103.013H129.15V102.463Z" fill="#2F2E41"/>
    <path d="M135.494 102.463H132.533V103.013H135.494V102.463Z" fill="#2F2E41"/>
    <path d="M63.7963 77.462C46.922 84.442 35.2378 94.9243 37.698 100.876C37.9901 101.539 38.4357 102.122 38.9981 102.577L38.9023 102.617L53.7011 113.466L68.4578 124.277L85.929 137.084L96.9942 145.194L97.6421 124.628L98.467 98.4703L99.1249 77.6021L99.0944 77.6147C99.1524 76.931 99.0549 76.2431 98.8091 75.6025C96.3473 69.6499 80.6722 70.4826 63.7963 77.462Z"
          fill="#DD1C4B"/>
    <path d="M63.7915 77.4601C46.9163 84.4392 35.2316 94.9219 37.6931 100.874C40.1546 106.826 55.8302 105.993 72.7054 99.0136C89.5807 92.0345 101.265 81.5519 98.8038 75.6C96.3423 69.6482 80.6667 70.481 63.7915 77.4601Z"
          fill="#D1E3EE"/>
    <path d="M98.9781 79.4603C98.1224 81.6295 96.812 83.5904 95.1351 85.2107L94.5976 102.267L93.7618 128.429L93.3194 142.461L97.1189 145.245L97.7668 124.68L98.5917 98.5219L99.1958 79.3702L98.9781 79.4603Z"
          fill="#B21D48"/>
    <path d="M94.5457 55.7968C94.4686 55.9809 94.3599 56.15 94.2246 56.2967C88.057 62.8948 83.7331 70.999 81.6873 79.796L80.3226 85.6726C80.0936 86.5637 79.1855 87.1006 78.2943 86.8716C77.4333 86.6503 76.8976 85.7921 77.0773 84.9215L78.435 79.0401C80.6143 69.6735 85.2175 61.0444 91.7828 54.0176C92.402 53.337 93.4557 53.2873 94.1363 53.9065C94.662 54.3848 94.8265 55.1438 94.5457 55.7968Z"
          fill="#FFBF41"/>
    <path d="M73.8212 79.6657C73.4637 80.5134 72.4864 80.9109 71.6387 80.5533C71.0534 80.3065 70.6595 79.7485 70.6229 79.1144L68.6408 40.4145C68.5937 39.4954 69.3006 38.7123 70.2197 38.6652C71.1388 38.6181 71.9219 39.325 71.969 40.2441L73.9511 78.9439C73.962 79.1911 73.9176 79.4376 73.8212 79.6657Z"
          fill="#FFBF41"/>
    <path d="M63.2781 96.3842C63.1943 96.5873 63.0707 96.7717 62.9145 96.926C62.2618 97.5747 61.2071 97.5716 60.5584 96.9189L60.5582 96.9189L56.1174 92.454C49.3194 85.5987 40.5602 81.0241 31.0501 79.3618C30.1411 79.2187 29.5205 78.3658 29.6635 77.457C29.8066 76.548 30.6595 75.9274 31.5683 76.0704C31.5884 76.0735 31.6083 76.0771 31.6284 76.0809C41.8158 77.8614 51.1987 82.7624 58.4801 90.1064L62.9203 94.5728C63.3939 95.0493 63.535 95.7634 63.2781 96.3842Z"
          fill="#FFBF41"/>
    <path d="M103.893 50.6562C104.598 48.9564 103.792 47.0069 102.092 46.3017C100.392 45.5965 98.4429 46.4028 97.7377 48.1026C97.0326 49.8024 97.8389 51.7519 99.5386 52.4571C101.238 53.1623 103.188 52.356 103.893 50.6562Z"
          fill="#D5557E"/>
    <path d="M45.4837 69.7134C46.1889 68.0136 45.3826 66.0641 43.6828 65.3589C41.983 64.6537 40.0335 65.46 39.3283 67.1598C38.6232 68.8596 39.4294 70.8091 41.1292 71.5143C42.829 72.2194 44.7786 71.4132 45.4837 69.7134Z"
          fill="#DD95C1"/>
    <path d="M25.8885 77.8175C25.1833 79.5173 23.2339 80.3235 21.534 79.6184C19.8341 78.9132 19.0279 76.9637 19.7331 75.2639C20.4383 73.564 22.3877 72.7578 24.0876 73.463C25.7875 74.1681 26.5937 76.1176 25.8885 77.8175Z"
          fill="#7FCCCB"/>
    <path d="M49.9191 37.2832C49.5666 38.1331 48.5917 38.5362 47.7419 38.1837L46.203 37.5453C45.3532 37.1927 44.95 36.2179 45.3026 35.368C45.6551 34.5182 46.63 34.115 47.4798 34.4676L49.0187 35.106C49.8685 35.4585 50.2718 36.4332 49.9191 37.2832Z"
          fill="#2276BB"/>
    <path d="M42.2248 34.0912C41.8722 34.9411 40.8974 35.3442 40.0475 34.9917L38.5087 34.3533C37.6589 34.0007 37.2557 33.0259 37.6082 32.176C37.9608 31.3262 38.9357 30.923 39.7855 31.2756L41.3244 31.914C42.1742 32.2665 42.5774 33.2412 42.2248 34.0912Z"
          fill="#2276BB"/>
    <path d="M47.2178 30.7515L46.5794 32.2903C46.2268 33.1402 45.252 33.5433 44.4021 33.1908C43.5523 32.8382 43.1491 31.8634 43.5017 31.0135L44.1401 29.4747C44.4926 28.6248 45.4675 28.2217 46.3173 28.5742C47.1672 28.9268 47.5704 29.9015 47.2178 30.7515Z"
          fill="#2276BB"/>
    <path d="M44.0258 38.4457L43.3874 39.9846C43.0348 40.8344 42.0599 41.2376 41.2101 40.885C40.3603 40.5325 39.9571 39.5576 40.3097 38.7078L40.9481 37.1689C41.3006 36.3191 42.2755 35.9159 43.1253 36.2685C43.9751 36.621 44.3784 37.5957 44.0258 38.4457Z"
          fill="#2276BB"/>
    <path d="M56.0208 113.878C55.2907 113.777 54.5621 113.655 53.8256 113.517L68.5822 124.329L72.4632 125.578C80.7432 128.227 89.6873 127.909 97.7582 124.678L98.5915 98.522C98.5019 98.6292 98.4212 98.7454 98.3286 98.8513C87.5002 110.429 71.7263 116.031 56.0208 113.878Z"
          fill="white"/>
    <path d="M98.5916 98.522C98.5021 98.6291 98.4214 98.7454 98.3288 98.8512C97.1536 100.1 95.9133 101.286 94.6131 102.403L93.8696 125.965C95.1913 125.608 96.4923 125.179 97.7667 124.68L98.5916 98.522Z"
          fill="#F6F6E7"/>
    <path d="M51.5733 50.5955L59.2999 53.8009L56.0945 61.5274L48.3679 58.322L51.5733 50.5955Z" fill="#C9DA53"/>
    <path d="M67.8138 89.7992C67.4611 90.649 66.4861 91.0519 65.6364 90.6991C65.2006 90.5181 64.8619 90.161 64.7045 89.716L57.2389 68.5819C56.9494 67.7085 57.4228 66.7659 58.2961 66.4764C59.1452 66.1949 60.065 66.6342 60.3798 67.4716L67.8454 88.6057C67.9828 88.9936 67.9714 89.4189 67.8138 89.7992Z"
          fill="#FFBF41"/>
    <path d="M80.1719 42.6191C79.8194 43.4689 78.8445 43.8721 77.9947 43.5195L76.4558 42.8811C75.606 42.5286 75.2028 41.5537 75.5554 40.7039C75.9079 39.8541 76.8828 39.4509 77.7326 39.8034L79.2715 40.4418C80.1213 40.7944 80.5246 41.7691 80.1719 42.6191Z"
          fill="#FFDB43"/>
    <path d="M80.1749 36.2425C80.0067 36.6513 79.6818 36.9758 79.2727 37.1434L77.7334 37.78C76.8772 38.1167 75.9098 37.6958 75.5731 36.8396C75.2446 36.0044 75.6368 35.0589 76.4601 34.7014L77.9995 34.0648C78.8499 33.7132 79.8241 34.1176 80.1756 34.968C80.3443 35.376 80.3442 35.8345 80.1749 36.2425Z"
          fill="#FFDB43"/>
    <path d="M75.6697 31.7328L75.0313 33.2717C74.6787 34.1215 73.7039 34.5247 72.854 34.1721C72.0042 33.8196 71.601 32.8447 71.9536 31.9949L72.592 30.456C72.9445 29.6062 73.9194 29.203 74.7692 29.5556C75.6191 29.9081 76.0223 30.8828 75.6697 31.7328Z"
          fill="#FFDB43"/>
    <path d="M69.9319 33.2683C69.5792 34.1181 68.6044 34.5211 67.7545 34.1682C67.3465 33.999 67.0225 33.6745 66.8538 33.2665L66.2172 31.7272C65.8802 30.8709 66.3013 29.9039 67.1576 29.5669C67.9928 29.2384 68.9382 29.6306 69.2958 30.454L69.9324 31.9933C70.1012 32.4015 70.1013 32.8601 69.9319 33.2683Z"
          fill="#FFDB43"/>
    <path d="M66.3223 36.8735C65.9698 37.7233 64.9949 38.1265 64.1451 37.7739L62.6062 37.1355C61.7564 36.783 61.3532 35.8081 61.7058 34.9583C62.0583 34.1085 63.0332 33.7053 63.883 34.0578L65.4219 34.6962C66.2717 35.0488 66.675 36.0235 66.3223 36.8735Z"
          fill="#FFDB43"/>
    <path d="M66.3198 41.9751C66.1505 42.3833 65.8258 42.7072 65.4176 42.876L63.8783 43.5126C63.0221 43.8494 62.0547 43.4285 61.718 42.5722C61.3894 41.737 61.7817 40.7916 62.605 40.434L64.1444 39.7974C64.9948 39.4458 65.969 39.8502 66.3205 40.7006C66.4893 41.1086 66.4891 41.5671 66.3198 41.9751Z"
          fill="#FFDB43"/>
    <path d="M11.0575 100.524L16.862 100.145L19.8401 95.1489L21.9943 100.552L27.6661 101.841L23.1929 105.558L23.7208 111.351L18.8023 108.246L13.4561 110.537L14.8893 104.9L11.0575 100.524Z"
          fill="#FFDB43"/>
    <path d="M127.144 51.8534C124.246 51.5092 121.326 52.273 118.968 53.9917L117.754 54.2312C110.963 55.5807 105.029 59.6712 101.352 65.5377C100.883 66.3292 101.145 67.3512 101.936 67.8203C102.701 68.2735 103.687 68.0465 104.176 67.3044C106.835 63.0759 110.866 59.8891 115.594 58.2772C114.992 61.0316 115.601 63.912 117.268 66.1863C119.548 69.075 123.739 69.5678 126.628 67.2871C129.516 65.0064 130.009 60.8159 127.728 57.9272C126.769 56.7872 125.559 55.8844 124.192 55.2897C127.25 54.6389 130.41 55.7963 132.324 58.2679C132.875 59.0047 133.919 59.1553 134.656 58.6043C135.392 58.0532 135.543 57.0091 134.992 56.2723C134.974 56.2487 134.956 56.2256 134.937 56.2029C133.024 53.7707 130.218 52.2045 127.144 51.8534ZM125.113 59.9879C126.261 61.4266 126.024 63.5231 124.586 64.6704C123.147 65.8179 121.051 65.5817 119.903 64.143C119.897 64.135 119.89 64.1269 119.884 64.1188C118.774 62.5938 118.412 60.6486 118.901 58.8267C119.005 58.5561 119.176 58.3168 119.399 58.1314C120.663 57.1333 123.834 58.3676 125.113 59.9879Z"
          fill="#2BB3CE"/>
    <defs>
        <clipPath id="clip0_0_1">
            <rect width="178.455" height="200" fill="white"/>
        </clipPath>
        <clipPath id="clip1_0_1">
            <rect width="31" height="31" fill="white" transform="translate(118 89)"/>
        </clipPath>
        <clipPath id="clip2_0_1">
            <rect width="31" height="31" fill="white" transform="translate(118 89)"/>
        </clipPath>
    </defs>
</svg>
